<?xml version="1.0" encoding="UTF-8"?>
<svg id="Layer_2" data-name="Layer 2" xmlns="http://www.w3.org/2000/svg" viewBox="0 0 515.41 258.81">
  <defs>
    <style>
      .cls-1 {
        fill: #af4800;
      }

      .cls-2 {
        fill: #f8a12e;
      }

      .cls-3 {
        stroke-width: 3px;
      }

      .cls-3, .cls-4 {
        fill: none;
        stroke: #af4800;
        stroke-miterlimit: 10;
      }

      .cls-5 {
        fill: #d97706;
      }

      .cls-4 {
        stroke-width: .96px;
      }
    </style>
  </defs>
  <g id="Layer_2-2" data-name="Layer 2">
    <g>
      <g>
        <rect class="cls-5" x="303.8" y="222.59" width="65.78" height="35.85"/>
        <rect class="cls-5" x="89.57" y="222.96" width="65.78" height="35.85"/>
        <path class="cls-5" d="M354.3,15.04v23.78h60.89c14.91-1.45,31.25-3.77,48.7-7.37,13.83-2.85,26.67-6.16,38.44-9.67-14.32,9.14-34.26,19.66-59.5,26.93-14.61,4.21-28.05,6.48-39.65,7.67h-48.67v46.67h-12V6.37h-33.78V0H0v25.7c46.34.72,92.67,1.43,139.01,2.15-42.61,3.65-85.22,7.31-127.83,10.96,25.15,4.05,45.4,10.02,59.7,14.96,31.65,10.95,60.96,21.32,82.54,47.92,16.39,20.19,17.32,36.12,17.42,40.56.07,3.27.17,12.04-4.15,21.93-2.98,6.82-7.24,12.3-13.52,18.19-19.72,18.48-52.16,34.25-59.56,37.78l62.22-2.67,22.22-16.67-19.33,22.44v34c15.38-5.61,39.96-12.5,70.78-12.48,30.7.02,55.2,6.88,70.56,12.48v-35.11l-18.89-22.44,22.89,17.33c20.67.89,41.33,1.78,62,2.67-8.68-4.49-17.92-9.72-27.52-15.81-9.25-5.87-17.62-11.79-25.15-17.52-11.79-8.98-16.44-18.26-18.11-21-4.9-8.01-8.28-13.53-8-21.33.37-10.3,6.86-17.35,8.89-19.56,9.56-10.39,22.38-11.48,25.67-11.67h33.11c26.43-3.2,47.72-9.96,62.7-15.89,26.42-10.46,43.23-22.32,60.74-34.67,10.6-7.48,19.38-14.57,26.96-26.07,5.35-8.11,8.33-15.74,10.04-21.15h-161.11ZM228.02,131.97c14.69.09,27.41,1.89,37.56,4.03-10.75,1.62-23.22,2.81-37.11,2.9-15.18.09-28.72-1.16-40.22-2.9,10.6-2.23,24.1-4.12,39.78-4.03ZM230.72,191.3c-14.6.09-28.31.79-41,1.89,8.39-3.38,22.55-7.87,40.56-7.89,17.19-.02,30.81,4.04,39.11,7.22-12.03-.83-24.95-1.31-38.67-1.22ZM313.8,102.7h-4.3V12.63h4.3v90.07Z"/>
      </g>
      <rect class="cls-2" y="0" width="308.74" height="6.37"/>
      <rect class="cls-2" x="308.74" y="6.37" width="33.78" height="4.18"/>
      <path class="cls-2" d="M354.33,15.02v4.18l159.77-.31c.44-1.29.87-2.58,1.31-3.87h-161.08Z"/>
      <path class="cls-1" d="M313.8,114.1h-151.77c1.75,2.89,3.58,6.47,5.14,10.7,2.63,7.19,3.48,13.68,3.71,18.48,11.92-4.81,31.83-11.13,57.15-11.31,26.45-.18,47.21,6.43,59.32,11.31.43-3.08,1.95-11.03,8.45-18.37,6.82-7.7,15.02-10.09,18.01-10.81Z"/>
      <path class="cls-1" d="M197.63,153.22c-2.72.16-2.83,6.85-6.65,14.61-5.96,12.13-16.26,17.32-15,19.3.62.98,3.43.2,6.39-.65,5.71-1.64,12.61-4.63,25.42-15.04,5.83-4.74,7.73-6.83,7.19-8.17-.72-1.8-4.98-.16-9.78-2.87-4.95-2.8-5.32-7.31-7.57-7.17Z"/>
      <path class="cls-1" d="M266.81,153.22c2.72.16,2.83,6.85,6.65,14.61,5.96,12.13,16.26,17.32,15,19.3-.62.98-3.43.2-6.39-.65-5.71-1.64-12.61-4.63-25.42-15.04-5.83-4.74-7.73-6.83-7.19-8.17.72-1.8,4.98-.16,9.78-2.87,4.95-2.8,5.32-7.31,7.57-7.17Z"/>
      <path class="cls-1" d="M17.76,39.94c31.77,1.39,57.42,6.6,75.33,11.29,46.28,12.14,58.01,25.35,62.22,30.72,9.43,12.03,12.75,25.06,14.09,33.65-1.19,1.95-2.39,3.89-3.58,5.84-4.36-8.67-11.89-21.15-24.46-32.84-18.22-16.94-37.58-23.58-72.52-34.83-12.23-3.94-29.64-9.08-51.07-13.84Z"/>
      <path class="cls-1" d="M512.16,23.68c-14.5,13.23-34.4,28.69-60.18,42.23-16.03,8.42-31.16,14.42-44.47,18.76-4.49,4.8-10.57,10.45-18.46,15.8-6.49,4.41-12.67,7.58-17.94,9.86,13.18-2.38,30.18-6.6,49.06-14.41,18.02-7.46,30.43-15.14,40.03-21.21,20.07-12.69,34.75-22.2,46.22-40.47,2.71-4.31,4.58-8.07,5.74-10.56Z"/>
      <path class="cls-1" d="M158.74,257.26c5.56-5.14,31.26-27.76,70.93-27.66,39.33.1,64.78,22.47,70.4,27.66-15.35-5.6-39.86-12.46-70.56-12.48-30.81-.02-55.4,6.87-70.78,12.48Z"/>
      <path class="cls-1" d="M89.57,258.81c2.12-.36,5.37-.9,9.34-1.5,22.63-3.38,29.09-2.55,38.74-6.07,4.51-1.64,10.83-4.64,17.7-10.57v18.13h-65.78Z"/>
      <path class="cls-1" d="M369.57,258.64c-2.12-.36-5.37-.9-9.34-1.5-22.63-3.38-29.09-2.55-38.74-6.07-4.51-1.64-10.83-4.64-17.7-10.57v18.13s65.78,0,65.78,0Z"/>
      <polygon class="cls-3" points="263.93 10.91 199.96 10.91 187.82 24.12 187.82 95.75 200.51 109.56 264.48 109.56 276.63 96.35 276.63 24.72 263.93 10.91"/>
      <polygon class="cls-4" points="261.44 14.79 202.49 14.79 191.3 26.96 191.3 92.96 203 105.68 261.95 105.68 273.14 93.52 273.14 27.51 261.44 14.79"/>
      <path class="cls-1" d="M240.97,28.97l-4.73-2.23h-8.27l-4.73,2.23v23.89l4.73,2.23h22.22l14.18,6.7v34.17l-14.18,6.7h-35.92l-14.18-6.7v-17.75h22.69v13.29l4.73,2.23h9.45l4.73-2.23v-25.01l-4.73-2.23h-22.22l-14.18-6.7V24.51l14.18-6.7h34.74l14.18,6.7v17.86h-22.69v-13.4Z"/>
    </g>
  </g>
</svg>